<svg id="Layer_1" height="512" viewBox="0 0 128 128" width="512" xmlns="http://www.w3.org/2000/svg" xmlns:xlink="http://www.w3.org/1999/xlink" data-name="Layer 1"><linearGradient id="linear-gradient" gradientUnits="userSpaceOnUse" x1="106.006" x2="21.994" y1="117.856" y2="33.845"><stop offset="0" stop-color="#fb503c"/><stop offset="1" stop-color="#3988d2"/></linearGradient><path d="m123.731 52.915-11.262 35.1a1.75 1.75 0 0 1 -3.332-1.07l10.891-33.945-56.028-44.345-56.028 44.345 21.418 66.75h69.22l2.954-9.205a1.75 1.75 0 1 1 3.332 1.069l-3.344 10.421a1.75 1.75 0 0 1 -1.666 1.215h-71.773a1.75 1.75 0 0 1 -1.666-1.215l-22.178-69.12a1.749 1.749 0 0 1 .58-1.907l58.065-45.956a1.749 1.749 0 0 1 2.172 0l58.065 45.956a1.749 1.749 0 0 1 .58 1.907zm-15.288 41.919a1.747 1.747 0 0 0 -2.2 1.131l-1.924 5.994a1.75 1.75 0 1 0 3.332 1.07l1.924-5.994a1.749 1.749 0 0 0 -1.132-2.201zm-75.476-50.14-13.567 10.741a1.748 1.748 0 0 0 -.58 1.907l16.748 52.193a1.75 1.75 0 0 0 1.666 1.215h53.536a1.75 1.75 0 0 0 1.666-1.215l16.748-52.193a1.748 1.748 0 0 0 -.58-1.907l-43.518-34.442a1.749 1.749 0 0 0 -2.172 0l-21.682 17.16a1.75 1.75 0 1 0 2.168 2.747l20.6-16.3 41.48 32.83-15.987 49.82h-50.986l-15.987-49.823 12.619-9.988a1.75 1.75 0 0 0 -2.172-2.744zm54.433 33.906a1.745 1.745 0 0 0 2.2-1.132l5.037-15.7a1.748 1.748 0 0 0 -.58-1.906l-28.971-22.927a1.749 1.749 0 0 0 -2.172 0l-28.969 22.927a1.748 1.748 0 0 0 -.58 1.906l11.316 35.266a1.749 1.749 0 0 0 1.666 1.216h35.306a1.749 1.749 0 0 0 1.666-1.216l3.415-10.644a1.75 1.75 0 1 0 -3.334-1.068l-3.023 9.428h-32.754l-10.555-32.9 26.932-21.312 26.932 21.316-4.666 14.546a1.748 1.748 0 0 0 1.134 2.2z" fill="url(#linear-gradient)"/></svg>